<svg width="116" height="22" viewBox="0 0 116 22" fill="none" xmlns="http://www.w3.org/2000/svg">
<path opacity="0.3" fill-rule="evenodd" clip-rule="evenodd" d="M94.6324 3.16805C94 4.40921 94 6.03398 94 9.28352V12.7165C94 15.966 94 17.5908 94.6324 18.8319C95.1887 19.9237 96.0763 20.8113 97.1681 21.3676C98.4092 22 100.034 22 103.284 22H106.716C109.966 22 111.591 22 112.832 21.3676C113.924 20.8113 114.811 19.9237 115.368 18.8319C116 17.5908 116 15.966 116 12.7165V9.28352C116 6.03398 116 4.40921 115.368 3.16805C114.811 2.0763 113.924 1.18868 112.832 0.632402C111.591 0 109.966 0 106.716 0H103.284C100.034 0 98.4092 0 97.1681 0.632402C96.0763 1.18868 95.1887 2.0763 94.6324 3.16805ZM105 14.9286C107.17 14.9286 108.929 13.1697 108.929 11C108.929 8.83031 107.17 7.07143 105 7.07143C102.83 7.07143 101.071 8.83031 101.071 11C101.071 13.1697 102.83 14.9286 105 14.9286ZM107.357 11C107.357 12.3018 106.302 13.3571 105 13.3571C103.698 13.3571 102.643 12.3018 102.643 11C102.643 9.69818 103.698 8.64286 105 8.64286C106.302 8.64286 107.357 9.69818 107.357 11ZM97.6567 5.7169C97.1429 6.72534 97.1429 8.04547 97.1429 10.6857V11.3143C97.1429 13.9545 97.1429 15.2747 97.6567 16.2831C98.1087 17.1701 98.8299 17.8913 99.7169 18.3433C100.725 18.8571 102.045 18.8571 104.686 18.8571H105.314C107.955 18.8571 109.275 18.8571 110.283 18.3433C111.17 17.8913 111.891 17.1701 112.343 16.2831C112.857 15.2747 112.857 13.9545 112.857 11.3143V10.6857C112.857 8.04547 112.857 6.72534 112.343 5.7169C111.891 4.82985 111.17 4.10866 110.283 3.65668C109.275 3.14286 107.955 3.14286 105.314 3.14286H104.686C102.045 3.14286 100.725 3.14286 99.7169 3.65668C98.8299 4.10866 98.1087 4.82985 97.6567 5.7169ZM104.686 4.71429H105.314C106.66 4.71429 107.575 4.71551 108.283 4.77329C108.972 4.82958 109.324 4.93161 109.57 5.05684C110.161 5.35815 110.642 5.83895 110.943 6.43032C111.068 6.67609 111.17 7.02841 111.227 7.71734C111.284 8.42463 111.286 9.33966 111.286 10.6857V11.3143C111.286 12.6603 111.284 13.5754 111.227 14.2827C111.17 14.9716 111.068 15.3239 110.943 15.5697C110.642 16.1611 110.161 16.6418 109.57 16.9432C109.324 17.0684 108.972 17.1704 108.283 17.2267C107.575 17.2845 106.66 17.2857 105.314 17.2857H104.686C103.34 17.2857 102.425 17.2845 101.717 17.2267C101.028 17.1704 100.676 17.0684 100.43 16.9432C99.8389 16.6418 99.3582 16.1611 99.0568 15.5697C98.9316 15.3239 98.8296 14.9716 98.7733 14.2827C98.7155 13.5754 98.7143 12.6603 98.7143 11.3143V10.6857C98.7143 9.33966 98.7155 8.42463 98.7733 7.71734C98.8296 7.02841 98.9316 6.67609 99.0568 6.43032C99.3582 5.83895 99.8389 5.35815 100.43 5.05684C100.676 4.93161 101.028 4.82958 101.717 4.77329C102.425 4.71551 103.34 4.71429 104.686 4.71429ZM110.5 6.67857C110.5 7.32948 109.972 7.85714 109.321 7.85714C108.671 7.85714 108.143 7.32948 108.143 6.67857C108.143 6.02766 108.671 5.5 109.321 5.5C109.972 5.5 110.5 6.02766 110.5 6.67857Z" fill="#353A5A"/>
<path opacity="0.3" fill-rule="evenodd" clip-rule="evenodd" d="M56.2835 0H59.7165C62.966 0 64.5908 0 65.8319 0.632402C66.9237 1.18868 67.8113 2.0763 68.3676 3.16806C69 4.40921 69 6.03398 69 9.28352V12.7165C69 15.966 69 17.5908 68.3676 18.8319C67.8113 19.9237 66.9237 20.8113 65.8319 21.3676C64.5908 22 62.966 22 59.7165 22H56.2835C53.034 22 51.4092 22 50.1681 21.3676C49.0763 20.8113 48.1887 19.9237 47.6324 18.8319C47 17.5908 47 15.966 47 12.7165V9.28352C47 6.03398 47 4.40921 47.6324 3.16806C48.1887 2.0763 49.0763 1.18868 50.1681 0.632402C51.4092 0 53.034 0 56.2835 0ZM63.3251 12.1362C63.2326 12.3718 63.2705 12.6043 63.4398 12.8339C63.6556 13.0762 63.8944 13.3226 64.1359 13.5717C64.8503 14.3088 65.5873 15.069 65.8154 15.8138C65.8958 16.2784 65.513 16.4513 65.1244 16.4513L63.0311 16.4857C62.9001 16.5143 62.7475 16.5 62.5733 16.4426C61.97 16.2441 61.5759 15.7682 61.1785 15.2883C60.9235 14.9804 60.6671 14.6707 60.3531 14.4317C60.1967 14.3125 60.0079 14.2313 59.8258 14.3282C59.4145 14.5443 59.4041 14.9601 59.3935 15.3812C59.3855 15.6995 59.3774 16.0209 59.1962 16.2614C58.9568 16.527 58.4927 16.4933 58.114 16.4658C58.0078 16.4581 57.9083 16.4509 57.8224 16.4509C53.9056 16.5914 51.3519 10.9767 50.185 8.07995C50.0454 7.68855 50.2655 7.49428 50.6593 7.49428L52.8998 7.47715C53.1393 7.51896 53.3666 7.66062 53.4559 7.90771C53.7913 8.72834 55.0126 11.6886 55.7699 11.6886C56.5272 11.6886 56.3377 8.67222 56.0806 8.10595C55.9443 7.91076 55.7127 7.7873 55.3856 7.73568C55.3147 7.72434 55.3284 7.65539 55.4266 7.52903C55.7699 7.08702 57.8742 6.95632 58.7956 7.1759C58.9777 7.22405 59.1558 7.30957 59.2371 7.4989C59.4214 7.93084 59.3791 8.65808 59.3363 9.39434C59.2832 10.3068 59.2293 11.2331 59.6048 11.6285C59.7498 11.6664 59.8292 11.6708 59.9565 11.5682C60.924 10.5926 61.5841 9.07458 62.1236 7.83067C62.1929 7.64781 62.3037 7.55793 62.475 7.51624C62.773 7.51624 63.0954 7.51757 63.4279 7.51895C64.1247 7.52183 64.8656 7.5249 65.517 7.51624C66.5248 7.51624 65.0665 9.58333 64.0835 10.9766C63.7006 11.5195 63.3898 11.96 63.3251 12.1362Z" fill="#353A5A"/>
<path opacity="0.3" fill-rule="evenodd" clip-rule="evenodd" d="M11 22C17.0751 22 22 17.0751 22 11C22 4.92487 17.0751 0 11 0C4.92487 0 0 4.92487 0 11C0 16.4216 3.92234 20.9272 9.08416 21.8337V21.8699C9.64599 21.956 10.2208 22 10.8063 22C10.8389 22 10.8715 21.9999 10.904 21.9996C10.936 21.9999 10.968 22 11 22ZM10.904 21.9996C11.4558 21.995 11.9979 21.9512 12.5284 21.8699V14.3641H15.0965L15.5851 11.2594H12.5284V9.24549C12.5284 8.39591 12.9546 7.56727 14.3237 7.56727H15.7143V4.92406C15.7143 4.92406 14.4528 4.71429 13.2474 4.71429C10.7288 4.71429 9.08416 6.2016 9.08416 8.89306V11.2594H6.28571V14.3641H9.08416V21.8337C9.67585 21.9377 10.2838 21.9943 10.904 21.9996Z" fill="#353A5A"/>
</svg>
